<?xml version="1.0" encoding="iso-8859-1"?>
<!-- Generator: Adobe Illustrator 19.0.0, SVG Export Plug-In . SVG Version: 6.00 Build 0)  -->
<svg version="1.1" id="Capa_1" xmlns="http://www.w3.org/2000/svg" xmlns:xlink="http://www.w3.org/1999/xlink" x="0px" y="0px"
	 viewBox="0 0 480.001 480.001" style="enable-background:new 0 0 480.001 480.001;" xml:space="preserve">
<g>
	<g>
		<path d="M360.001,88c-39.764,0-72,32.235-72,72c0,39.764,32.236,72,72,72c39.765,0,72-32.236,72-72
			C431.955,120.255,399.746,88.047,360.001,88z M360.001,216c-30.928,0-56-25.072-56-56c0-30.928,25.072-56,56-56
			c30.928,0,56,25.072,56,56C415.966,190.914,390.914,215.966,360.001,216z"/>
	</g>
</g>
<g>
	<g>
		<path d="M220.962,117.118l-12.961-10.25v-5.734l12.961-10.25c2.38-1.879,3.492-4.942,2.871-7.91
			c-1.617-7.562-4.087-14.917-7.363-21.922c-1.198-2.589-3.686-4.343-6.527-4.602l-15.832-1.453l-3.73-5.043l3.43-14.977
			c0.651-2.837-0.292-5.805-2.461-7.746c-5.821-5.221-12.199-9.785-19.02-13.609c-2.465-1.375-5.471-1.352-7.914,0.063l-13.367,7.75
			c-2.121-0.754-4.328-1.441-6.641-2.066l-6.18-14.504C136.97,1.914,134.074,0,130.868,0h-21.734c-3.206,0-6.102,1.914-7.359,4.863
			l-6.18,14.504c-2.316,0.625-4.52,1.313-6.637,2.066l-13.367-7.75c-2.442-1.411-5.445-1.436-7.91-0.066
			c-6.823,3.822-13.203,8.386-19.024,13.609c-2.169,1.942-3.112,4.909-2.461,7.746l3.43,14.98l-3.734,5.043l-15.824,1.445
			c-2.841,0.261-5.33,2.013-6.531,4.602c-3.279,7.007-5.75,14.364-7.367,21.93c-0.621,2.968,0.491,6.031,2.871,7.91l12.961,10.25
			v5.734l-12.961,10.25c-2.38,1.879-3.492,4.942-2.871,7.91c1.617,7.562,4.087,14.917,7.363,21.922
			c1.198,2.589,3.686,4.343,6.527,4.602l15.832,1.453l3.73,5.043l-3.43,14.977c-0.651,2.837,0.292,5.804,2.461,7.746
			c5.821,5.221,12.199,9.785,19.02,13.609c2.464,1.377,5.472,1.353,7.914-0.062l13.367-7.75c2.141,0.762,4.367,1.453,6.699,2.082
			l6.16,13.961c1.281,2.898,4.151,4.768,7.32,4.77h21.734c3.169-0.001,6.039-1.871,7.32-4.77l6.16-13.961
			c2.336-0.629,4.559-1.32,6.695-2.082l13.367,7.75c2.44,1.419,5.447,1.444,7.91,0.066c6.823-3.822,13.204-8.386,19.024-13.609
			c2.17-1.941,3.112-4.909,2.461-7.746l-3.43-14.98l3.734-5.043l15.828-1.449c2.843-0.257,5.332-2.011,6.531-4.602
			c3.276-7.007,5.746-14.362,7.363-21.926C224.454,122.06,223.342,118.996,220.962,117.118z M203.766,136.055l-14.684,1.34
			c-2.271,0.21-4.346,1.378-5.703,3.211l-8.05,10.883c-1.391,1.876-1.89,4.267-1.367,6.543l3.168,13.836
			c-2.79,2.258-5.712,4.348-8.75,6.258l-12.621-7.32c-2.159-1.245-4.774-1.419-7.078-0.469c-3.84,1.567-7.806,2.804-11.855,3.699
			c-2.462,0.564-4.514,2.256-5.535,4.567l-5.637,12.777h-11.305l-5.637-12.777c-1.021-2.312-3.075-4.006-5.539-4.567
			c-4.05-0.896-8.018-2.134-11.859-3.699c-2.303-0.95-4.917-0.776-7.074,0.469l-12.621,7.316c-3.037-1.909-5.957-3.998-8.746-6.254
			l3.168-13.836c0.523-2.276,0.023-4.667-1.367-6.543l-8.051-10.883c-1.356-1.833-3.429-2.999-5.699-3.207l-14.687-1.348
			c-1.272-3.121-2.358-6.314-3.254-9.563l11.98-9.477c1.92-1.515,3.04-3.827,3.039-6.273V97.262
			c0.001-2.446-1.119-4.758-3.039-6.273l-11.984-9.476c0.9-3.25,1.989-6.444,3.262-9.567l14.68-1.344
			c2.271-0.207,4.346-1.374,5.703-3.207l8.051-10.882c1.391-1.876,1.89-4.267,1.367-6.543l-3.168-13.836
			c2.79-2.258,5.712-4.347,8.75-6.258l12.621,7.32c2.158,1.249,4.774,1.423,7.078,0.469c3.84-1.567,7.806-2.804,11.855-3.699
			c2.497-0.571,4.57-2.304,5.574-4.66L114.419,16h11.164l5.668,13.305c1.005,2.357,3.08,4.09,5.578,4.66
			c4.05,0.896,8.018,2.134,11.859,3.699c2.302,0.954,4.918,0.78,7.074-0.469l12.621-7.316c3.037,1.909,5.957,3.998,8.746,6.254
			l-3.168,13.836c-0.523,2.276-0.023,4.667,1.367,6.543l8.051,10.883c1.356,1.833,3.429,2.999,5.699,3.207l14.687,1.348
			c1.272,3.121,2.358,6.314,3.254,9.562l-11.981,9.477c-1.92,1.515-3.04,3.827-3.039,6.273v13.477
			c-0.001,2.446,1.119,4.758,3.039,6.273l11.984,9.477C206.124,129.738,205.036,132.932,203.766,136.055z"/>
	</g>
</g>
<g>
	<g>
		<path d="M120.001,48c-30.928,0-56,25.072-56,56c0.035,30.914,25.086,55.965,56,56c30.928,0,56-25.072,56-56
			C176.001,73.072,150.929,48,120.001,48z M120.001,144c-22.091,0-40-17.909-40-40c0.026-22.081,17.919-39.974,40-40
			c22.091,0,40,17.909,40,40S142.092,144,120.001,144z"/>
	</g>
</g>
<g>
	<g>
		<path d="M473.563,138.516l-12.437-2.48c-0.473-1.984-1.008-3.967-1.606-5.949l8.898-7.973c2.551-2.284,3.363-5.94,2.02-9.09
			c-3.859-8.959-8.798-17.414-14.707-25.176c-2.061-2.73-5.629-3.848-8.879-2.781l-11.18,3.672c-1.426-1.512-2.895-2.982-4.406-4.41
			l3.672-11.176c1.067-3.25-0.051-6.819-2.781-8.879c-7.762-5.909-16.217-10.849-25.176-14.711c-3.15-1.352-6.812-0.539-9.094,2.02
			l-7.973,8.898c-1.98-0.598-3.964-1.133-5.949-1.605l-2.473-12.438c-0.746-3.742-4.031-6.437-7.847-6.437H346.36
			c-3.816-0.001-7.1,2.695-7.844,6.438l-2.48,12.438c-1.984,0.473-3.967,1.008-5.949,1.605l-7.973-8.898
			c-2.281-2.557-5.941-3.37-9.09-2.02c-8.959,3.859-17.414,8.798-25.176,14.707c-2.73,2.06-3.848,5.629-2.781,8.879l3.672,11.18
			c-1.512,1.426-2.982,2.895-4.41,4.406l-11.176-3.672c-3.25-1.063-6.816,0.055-8.879,2.781
			c-5.909,7.762-10.85,16.217-14.711,25.176c-1.344,3.151-0.532,6.808,2.02,9.094l8.898,7.973c-0.598,1.977-1.133,3.958-1.605,5.945
			l-12.438,2.48c-3.743,0.743-6.438,4.028-6.437,7.844v27.285c-0.001,3.816,2.695,7.1,6.438,7.844l12.438,2.481
			c0.473,1.984,1.008,3.967,1.605,5.949l-8.899,7.973c-2.551,2.284-3.363,5.94-2.02,9.09c3.859,8.959,8.798,17.414,14.707,25.176
			c2.06,2.73,5.629,3.848,8.879,2.781l11.18-3.672c1.426,1.512,2.894,2.982,4.406,4.41l-3.672,11.176
			c-1.067,3.25,0.051,6.819,2.781,8.879c7.762,5.909,16.217,10.85,25.176,14.711c3.151,1.34,6.806,0.529,9.094-2.02l7.973-8.898
			c1.981,0.598,3.964,1.133,5.949,1.606l2.473,12.437c0.746,3.743,4.032,6.438,7.848,6.438h27.285
			c3.816,0.001,7.1-2.695,7.844-6.438l2.48-12.437c1.984-0.473,3.967-1.008,5.949-1.606l7.973,8.898
			c2.281,2.556,5.941,3.369,9.09,2.02c8.959-3.859,17.414-8.798,25.176-14.707c2.73-2.06,3.848-5.629,2.781-8.879l-3.672-11.18
			c1.512-1.426,2.982-2.894,4.41-4.406l11.176,3.672c3.25,1.065,6.817-0.052,8.879-2.781c5.909-7.762,10.849-16.217,14.711-25.176
			c1.344-3.151,0.532-6.808-2.02-9.094l-8.898-7.973c0.598-1.98,1.133-3.964,1.606-5.949l12.437-2.473
			c3.742-0.747,6.437-4.032,6.437-7.848V146.36C480.002,142.544,477.306,139.259,473.563,138.516z M464.001,167.082l-11.18,2.223
			c-3.224,0.645-5.727,3.194-6.312,6.43c-0.865,4.743-2.122,9.406-3.758,13.941c-1.098,3.064-0.231,6.487,2.191,8.66l8.398,7.523
			c-2.087,4.167-4.45,8.191-7.074,12.043l-10.57-3.473c-3.092-1.018-6.493-0.059-8.598,2.426c-3.131,3.689-6.558,7.117-10.246,10.25
			c-2.478,2.106-3.436,5.503-2.422,8.594l3.473,10.57c-3.853,2.622-7.876,4.984-12.043,7.07l-7.523-8.398
			c-2.175-2.419-5.596-3.285-8.66-2.191c-4.535,1.636-9.198,2.893-13.941,3.758c-3.236,0.583-5.786,3.087-6.426,6.313l-2.23,11.18
			h-14.16l-2.223-11.18c-0.644-3.224-3.194-5.727-6.43-6.313c-4.743-0.865-9.406-2.122-13.941-3.758
			c-3.063-1.106-6.492-0.239-8.66,2.191l-7.523,8.398c-4.167-2.087-8.191-4.451-12.043-7.074l3.473-10.57
			c1.014-3.093,0.055-6.491-2.426-8.598c-3.689-3.131-7.117-6.558-10.25-10.246c-2.105-2.481-5.503-3.439-8.594-2.422l-10.57,3.473
			c-2.622-3.853-4.984-7.876-7.07-12.043l8.398-7.523c2.423-2.173,3.289-5.596,2.191-8.66c-1.636-4.535-2.893-9.198-3.758-13.941
			c-0.583-3.236-3.087-5.786-6.313-6.426l-11.18-2.23v-14.16l11.18-2.23c3.225-0.64,5.73-3.19,6.313-6.426
			c0.865-4.742,2.122-9.404,3.758-13.937c1.098-3.064,0.231-6.487-2.191-8.66l-8.398-7.523c2.087-4.167,4.451-8.191,7.074-12.043
			l10.57,3.473c3.093,1.014,6.491,0.055,8.598-2.426c3.131-3.689,6.558-7.117,10.246-10.25c2.478-2.106,3.436-5.503,2.422-8.594
			l-3.473-10.57c3.853-2.622,7.876-4.984,12.043-7.07l7.523,8.398c2.171,2.426,5.596,3.293,8.66,2.191
			c4.535-1.636,9.198-2.893,13.941-3.758c3.236-0.583,5.786-3.087,6.426-6.313l2.23-11.18h14.16l2.223,11.18
			c0.644,3.224,3.194,5.727,6.43,6.312c4.743,0.865,9.406,2.122,13.941,3.758c3.064,1.093,6.485,0.228,8.66-2.191l7.523-8.398
			c4.167,2.087,8.191,4.45,12.043,7.074l-3.473,10.57c-1.014,3.093-0.055,6.491,2.426,8.598c3.689,3.131,7.117,6.558,10.25,10.246
			c2.11,2.472,5.503,3.428,8.594,2.422l10.57-3.473c2.622,3.853,4.984,7.876,7.07,12.043l-8.398,7.523
			c-2.423,2.173-3.289,5.596-2.191,8.66c1.637,4.535,2.893,9.198,3.758,13.941c0.583,3.236,3.087,5.786,6.312,6.426l11.18,2.23
			V167.082z"/>
	</g>
</g>
<g>
	<g>
		<path d="M158.399,331.2l-72-96c-2.904-3.534-8.123-4.044-11.657-1.14c-0.416,0.342-0.798,0.724-1.14,1.14l-72,96
			c-1.82,2.424-2.113,5.668-0.758,8.379l31.156,62.309V472c0,4.418,3.582,8,8,8h80c4.418,0,8-3.582,8-8v-70.113l31.156-62.309
			C160.513,336.868,160.219,333.623,158.399,331.2z M112.001,464h-64v-56h64V464z M115.055,392H44.946l-27.578-55.156l54.633-72.845
			v50.226c-7.653,4.418-10.275,14.204-5.856,21.856c4.418,7.653,14.204,10.275,21.856,5.856c7.653-4.418,10.275-14.204,5.856-21.856
			c-1.404-2.432-3.424-4.452-5.856-5.856v-50.226l54.633,72.845L115.055,392z"/>
	</g>
</g>
<g>
	<g>
		<path d="M311.044,356.207l-56-104c-2.453-3.89-7.595-5.054-11.485-2.601c-1.05,0.662-1.939,1.551-2.601,2.601l-56,104
			c-0.629,1.165-0.958,2.469-0.957,3.793v112c0,4.418,3.582,8,8,8h112c4.418,0,8-3.582,8-8V360
			C312.001,358.676,311.672,357.373,311.044,356.207z M248.001,272.875L256.145,288h-16.289L248.001,272.875z M231.241,304h33.52
			l25.847,48h-85.214L231.241,304z M216.001,464h-16v-96h16V464z M264.001,464h-32v-96h32V464z M296.001,464h-16v-96h16V464z"/>
	</g>
</g>
<g>
	<g>
		<path d="M472.001,304h-112c-4.418,0-8,3.582-8,8v160c0,4.418,3.582,8,8,8h112c4.418,0,8-3.582,8-8V312
			C480.001,307.582,476.419,304,472.001,304z M464.001,336.43h-24v16h24V368h-40v16h40v16h-24v16h24v16h-40v16h40v16h-96V320h96
			V336.43z"/>
	</g>
</g>
<g>
</g>
<g>
</g>
<g>
</g>
<g>
</g>
<g>
</g>
<g>
</g>
<g>
</g>
<g>
</g>
<g>
</g>
<g>
</g>
<g>
</g>
<g>
</g>
<g>
</g>
<g>
</g>
<g>
</g>
</svg>
